<?xml version="1.0" encoding="utf-8"?>
<!-- Generator: Adobe Illustrator 26.5.0, SVG Export Plug-In . SVG Version: 6.00 Build 0)  -->
<svg version="1.0" id="katman_1" xmlns="http://www.w3.org/2000/svg" xmlns:xlink="http://www.w3.org/1999/xlink" x="0px" y="0px"
	 viewBox="0 0 612 465" style="enable-background:new 0 0 612 465;" xml:space="preserve">
<style type="text/css">
	.st0{fill:#77E8B9;}
</style>
<g>
	<path class="st0" d="M132.37,237.07v14.54h-16.95c-1.42-0.06-2.82-0.4-4.09-1.02l-0.42-0.22l-4.12-2.39
		c-1.21-0.62-2.62-0.66-3.86-0.12l-0.26,0.12l-5.27,3.09c-0.47,0.23-0.76,0.71-0.76,1.23c0,0.46,0.23,0.89,0.61,1.14l0.15,0.09
		l11.09,6.51c1.25,0.68,2.62,1.09,4.03,1.21l0.47,0.03h19.38v9.69c-0.01,1.26-0.98,2.28-2.21,2.39l-0.21,0.01H52.42
		c-1.24-0.01-2.27-0.94-2.4-2.16l-0.01-0.2v-9.69h19.33c1.42-0.06,2.81-0.4,4.08-1.02l0.42-0.22l37.07-21.77
		c1.26-0.67,2.63-1.08,4.04-1.2l0.47-0.03H132.37z M132.37,212.8v14.54h-19.33c-1.42,0.06-2.81,0.41-4.08,1.02l-0.42,0.21
		l-37.07,21.79c-1.26,0.67-2.63,1.08-4.04,1.2l-0.47,0.03H50v-14.54h19.33c1.42-0.06,2.81-0.41,4.08-1.02l0.42-0.21l37.07-21.79
		c1.26-0.67,2.63-1.08,4.04-1.2l0.47-0.03H132.37z M129.96,191c1.25,0,2.28,0.95,2.4,2.17l0.01,0.21v9.69h-19.33
		c-1.42,0.06-2.81,0.4-4.08,1.02l-0.42,0.22l-37.07,21.77c-1.25,0.68-2.63,1.08-4.04,1.21l-0.47,0.03H50v-14.54h16.95
		c1.42,0.06,2.81,0.41,4.09,1.02l0.42,0.21l4.12,2.4c1.21,0.62,2.62,0.66,3.86,0.12l0.26-0.12l5.27-3.1
		c0.46-0.23,0.75-0.71,0.75-1.22c0-0.46-0.23-0.88-0.6-1.14l-11.24-6.61c-1.25-0.67-2.62-1.08-4.03-1.2l-0.47-0.03H50v-9.69
		c0-1.27,0.98-2.31,2.22-2.41l0.2-0.01H129.96z"/>
	<path d="M198.87,199.47c-1.47-1.08-3.18-1.79-4.98-2.06c-2.23-0.37-4.48-0.55-6.74-0.54h-12.36c-2.3-0.01-4.6,0.17-6.86,0.54
		c-2.03,0.33-3.97,1.03-5.74,2.07c-1.74,1.08-3.21,2.55-4.28,4.3c-1.29,2.19-2.14,4.61-2.5,7.13l-2,11.56
		c-0.55,2.42-0.6,4.93-0.14,7.37c0.37,1.73,1.29,3.29,2.64,4.45c1.48,1.16,3.23,1.92,5.08,2.21c2.06,0.38,4.16,0.58,6.25,0.6
		l12.55,0l-2.11,12.08H165.8l1.21-6.95l-18.51,2.43l-0.74,4.42c-0.51,2.41-0.57,4.89-0.16,7.32c0.32,1.72,1.21,3.29,2.53,4.45
		c1.43,1.16,3.14,1.91,4.96,2.2c2.05,0.36,4.12,0.55,6.19,0.58l14.92,0c2.41,0.02,4.83-0.17,7.21-0.58c2.04-0.35,4-1.09,5.75-2.2
		c1.74-1.14,3.2-2.67,4.24-4.48c1.28-2.27,2.13-4.75,2.53-7.33l2.14-12.36c0.53-2.35,0.53-4.79,0-7.14
		c-0.48-1.7-1.53-3.19-2.97-4.23c-1.56-1.09-3.36-1.79-5.24-2.06c-2.34-0.37-4.71-0.55-7.08-0.54h-11.66l1.96-11.37h10.67
		l-1.02,6.11l18.18-2.29l0.74-4.32c0.54-2.34,0.54-4.77,0-7.11c-0.4-1.57-1.26-2.98-2.49-4.03L198.87,199.47z M377.8,197.63
		l-8.58,49.27h11.15l8.57-49.27h18.97l-8.92,51.5c-0.38,2.57-1.22,5.06-2.48,7.33c-1.04,1.8-2.5,3.32-4.24,4.45
		c-1.8,1.11-3.81,1.85-5.9,2.18c-2.16,0.36-4.33,0.56-6.52,0.59l-0.94,0h-14.13c-2.4,0.03-4.79-0.17-7.15-0.59
		c-1.87-0.29-3.63-1.04-5.13-2.18c-1.36-1.14-2.29-2.71-2.65-4.45c-0.41-2.22-0.41-4.5-0.01-6.73l0.12-0.6l8.95-51.5H377.8z
		 M256.56,197.63l-2.9,16.54h-14.73l-8.48,48.71h-18.92l8.48-48.71h-14.73l2.88-16.54H256.56z M280.89,197.63l-11.37,65.25h-18.93
		l11.38-65.25H280.89z M304.24,197.63l10.12,25.86l18.37-25.86h17.28l-11.37,65.25h-18.97l5.97-34.12l-16.13,23.22l-8.54-22.75
		l-5.86,33.65h-16.36l11.37-65.25H304.24z M435.69,197.63l-8.48,48.71h20.32l-2.88,16.54h-39.25l11.37-65.25H435.69z M480.12,197.63
		l-8.58,49.27h11.13l8.58-49.27h18.99l-8.95,51.5c-0.39,2.57-1.23,5.06-2.5,7.33c-1.04,1.8-2.49,3.33-4.24,4.45
		c-1.8,1.11-3.8,1.85-5.89,2.18c-2.16,0.36-4.34,0.56-6.53,0.59l-15.05,0c-2.4,0.03-4.79-0.17-7.15-0.59
		c-1.87-0.28-3.63-1.03-5.13-2.18c-1.36-1.14-2.3-2.71-2.65-4.45c-0.41-2.22-0.41-4.5-0.01-6.73l0.12-0.6l8.94-51.5H480.12z
		 M547.1,196.88c2.26-0.02,4.51,0.16,6.74,0.54c1.81,0.27,3.53,0.98,5.01,2.06c1.36,1.07,2.32,2.57,2.75,4.24
		c0.49,2.17,0.53,4.41,0.11,6.6l-0.11,0.54l-0.76,4.32l-18.18,2.29l1.03-6.11h-10.68l-1.96,11.37h11.66
		c2.37-0.02,4.74,0.16,7.08,0.54c1.89,0.26,3.68,0.97,5.24,2.06c1.44,1.03,2.48,2.52,2.97,4.23c0.49,2.17,0.53,4.41,0.11,6.6
		l-0.11,0.54l-2.14,12.36c-0.39,2.57-1.24,5.06-2.51,7.33c-1.04,1.8-2.5,3.34-4.24,4.48c-1.76,1.1-3.72,1.85-5.77,2.2
		c-2.08,0.35-4.18,0.54-6.29,0.57l-0.9,0h-14.03c-2.37,0.03-4.75-0.17-7.08-0.58c-1.82-0.28-3.53-1.04-4.97-2.2
		c-1.31-1.16-2.2-2.73-2.51-4.45c-0.38-2.22-0.37-4.5,0.04-6.71l0.12-0.6l0.74-4.42l18.51-2.43l-1.22,6.95h11.94l2.09-12.08h-11.64
		c-2.4,0.03-4.8-0.17-7.17-0.6c-1.85-0.29-3.6-1.06-5.08-2.21c-1.34-1.15-2.27-2.72-2.64-4.45c-0.42-2.24-0.41-4.53,0.02-6.77
		l0.13-0.61l2-11.56c0.34-2.51,1.18-4.94,2.46-7.13c1.08-1.75,2.55-3.22,4.3-4.3c1.76-1.05,3.7-1.75,5.72-2.07
		c1.95-0.32,3.91-0.49,5.88-0.53l0.99-0.01H547.1z"/>
</g>
</svg>
